<?xml version="1.0" encoding="utf-8"?>
<!-- Generator: Adobe Illustrator 15.1.0, SVG Export Plug-In . SVG Version: 6.00 Build 0)  -->
<!DOCTYPE svg PUBLIC "-//W3C//DTD SVG 1.1 Tiny//EN" "http://www.w3.org/Graphics/SVG/1.1/DTD/svg11-tiny.dtd">
<svg version="1.1" baseProfile="tiny" id="Layer_1" xmlns="http://www.w3.org/2000/svg" xmlns:xlink="http://www.w3.org/1999/xlink"
	 x="0px" y="0px" width="641.8px" height="146.5px" viewBox="0 0 641.8 146.5" xml:space="preserve">
<g>
	<path fill="#2c3e50" d="M61.6,79.9H63v-1.8c0-8.6-6.6-11.4-15.2-11.4c-13,0-27.8,9.8-27.8,9.8L8,52.1c0,0,17.8-13.4,43.2-13.4
		c29,0,46.4,15.8,46.4,42v63.4H66v-6.2c0-3.4,0.4-6.4,0.4-6.4H66c0,0-7.6,15-29.2,15c-19.2,0-35-12.8-35-33.2
		C1.8,83.3,45.6,79.9,61.6,79.9z M46.4,120.1c9,0,17-9.8,17-18.2v-2.2h-3.2c-11,0-23.6,3.2-23.6,11.8
		C36.6,116.3,39.6,120.1,46.4,120.1z"/>
	<path fill="#2c3e50" d="M116.6,41.1h33.2v9c0,3.4-0.4,6.4-0.4,6.4h0.4c4.8-8,14.6-17.8,32.8-17.8c20.8,0,37,9.6,37,38.6v66.8H185
		V83.7c0-9.6-3.8-13.6-11.4-13.6c-10.8,0-17.4,6-20.4,14.8c-1.4,4-2,8.6-2,13.6v45.6h-34.6V41.1z"/>
	<path fill="#2c3e50" d="M238.8,41.1h34.6v103h-34.6V41.1z M239.2,1.1H273v27h-33.8V1.1z"/>
	<path fill="#2c3e50" d="M294,41.1h33.2v9c0,3.4-0.4,6.4-0.4,6.4h0.4c4.8-7.2,14.4-17.8,30.6-17.8c13,0,23.4,5.8,28.8,17.4h0.4
		c5.4-8.6,17.6-17.4,33-17.4c18.8,0,33.4,10.2,33.4,38.6v66.8h-34.6v-61c0-7.6-1.4-13-8-13c-11,0-16.8,8-19,19.4
		c-0.8,3.6-0.8,7.8-0.8,12v42.6h-34.6v-61c0-7.6-1.4-13-8-13c-10.8,0-16.4,7.6-18.8,18.6c-0.8,3.8-1,8.4-1,12.8v42.6H294V41.1z"/>
	<path fill="#2c3e50" d="M523.2,38.7c32.6,0,58.6,21.8,58.6,54.2c0,32.2-26,53.6-58.4,53.6c-32.4,0-58.4-21.4-58.4-53.6
		C465,60.5,491,38.7,523.2,38.7z M523.4,117.7c12.6,0,23.4-9.4,23.4-24.8c0-15.6-10.8-25.4-23.4-25.4S500,77.3,500,92.9
		C500,108.3,510.8,117.7,523.4,117.7z"/>
	<path fill="#2c3e50" d="M593.4,1.1H628v100.4c0,9.8,1.8,13.2,9.6,13.2c2.2,0,4.2-0.2,4.2-0.2v30c0,0-4.8,0.6-10.4,0.6
		c-18.4,0-38-4.4-38-39V1.1z"/>
</g>
</svg>
